<?xml version="1.0" standalone="no"?>
<!DOCTYPE svg PUBLIC "-//W3C//DTD SVG 20010904//EN"
 "http://www.w3.org/TR/2001/REC-SVG-20010904/DTD/svg10.dtd">
<svg version="1.0" xmlns="http://www.w3.org/2000/svg"
 width="227.000000pt" height="227.000000pt" viewBox="0 0 227.000000 227.000000"
 preserveAspectRatio="xMidYMid meet">
<metadata>
Created by potrace 1.11, written by Peter Selinger 2001-2013
</metadata>
<g transform="translate(0.000000,227.000000) scale(0.100000,-0.100000)"
fill="#000000" stroke="none">
<path d="M880 2129 c-189 -28 -401 -128 -528 -249 l-24 -22 -87 36 c-192 80
-196 68 -26 -79 69 -60 123 -110 121 -112 -2 -2 -35 13 -74 34 -39 21 -74 34
-78 30 -4 -4 30 -46 76 -92 47 -47 81 -85 77 -85 -4 0 -67 41 -139 90 -173
118 -196 120 -108 10 27 -34 50 -63 50 -65 0 -1 -15 -37 -34 -81 -70 -160 -81
-218 -80 -424 0 -170 2 -192 26 -270 70 -227 188 -400 359 -529 422 -319 995
-274 1360 106 36 37 70 77 76 87 10 19 13 18 78 -8 102 -41 100 -30 -18 94
-43 45 -76 84 -74 87 3 2 37 -9 75 -26 65 -27 82 -29 82 -11 0 4 -36 51 -80
104 -44 54 -80 99 -80 102 0 12 31 -5 171 -97 211 -139 259 -166 259 -144 0 9
-31 49 -69 89 -161 167 -172 180 -166 201 19 72 27 234 16 328 -57 469 -390
818 -851 893 -92 15 -223 16 -310 3z m720 -461 c134 -68 138 -238 11 -367 -84
-86 -202 -123 -286 -91 -19 7 -33 6 -55 -5 -29 -15 -120 -113 -120 -129 0 -5
97 -106 215 -224 118 -119 215 -223 215 -232 0 -29 -30 -60 -58 -60 -21 0 -67
41 -229 202 -112 112 -206 204 -210 205 -5 2 -100 -89 -213 -202 -117 -117
-213 -205 -223 -205 -22 0 -59 18 -69 34 -21 31 1 59 210 269 l217 219 -54 49
c-55 49 -99 69 -155 69 -77 0 -102 18 -206 147 -118 146 -134 169 -126 182 6
9 48 -32 214 -209 l61 -65 21 20 20 21 -109 109 c-61 60 -107 113 -104 118 3
5 57 -42 120 -104 91 -92 115 -111 123 -99 5 8 10 19 10 25 0 5 -59 69 -131
141 -75 75 -129 137 -125 143 4 6 64 -47 145 -130 132 -135 138 -139 154 -121
9 10 17 21 17 24 0 3 -63 64 -139 136 -77 73 -136 134 -130 138 9 5 83 -47
179 -127 19 -16 53 -42 75 -59 48 -38 65 -74 75 -162 9 -80 52 -155 104 -183
33 -18 34 -18 67 5 98 67 124 109 109 177 -28 123 53 269 184 333 76 37 134
39 196 8z"/>
<path d="M1403 1609 c-86 -42 -134 -121 -132 -219 0 -41 1 -43 11 -20 6 14 21
48 34 77 12 29 48 79 83 115 34 34 61 64 61 65 0 7 -18 1 -57 -18z"/>
</g>
</svg>
